<svg xmlns="http://www.w3.org/2000/svg" viewBox="0 0 56 48" width="56" height="48">
  <!-- เงา -->
  <ellipse cx="28" cy="45" rx="24" ry="3.5" fill="#000000" opacity="0.28"/>

  <!-- ตัวหีบ -->
  <rect x="6" y="22" width="44" height="20" rx="2" fill="#6b3e1e"/>
  <rect x="6" y="22" width="44" height="20" rx="2" fill="none" stroke="#3e2410" stroke-width="1.5"/>

  <!-- ฝาหีบ (โค้ง) -->
  <path d="M6 22 C6 12 14 8 28 8 C42 8 50 12 50 22 Z" fill="#8a4d24"/>
  <path d="M6 22 C6 12 14 8 28 8 C42 8 50 12 50 22 Z" fill="none" stroke="#3e2410" stroke-width="1.5"/>

  <!-- แถบไม้ -->
  <rect x="6" y="30" width="44" height="3" fill="#4e2c14"/>
  <path d="M6 22 C6 12 14 8 28 8 C42 8 50 12 50 22" fill="none" stroke="#4e2c14" stroke-width="3" stroke-dasharray="0 20 3 100"/>

  <!-- ขอบทองมุมหีบ -->
  <rect x="6" y="22" width="6" height="20" fill="#e6c86e" opacity="0.9"/>
  <rect x="44" y="22" width="6" height="20" fill="#e6c86e" opacity="0.9"/>
  <path d="M6 22 C6 12 12 9 18 8 L18 22 Z" fill="#e6c86e" opacity="0.9"/>
  <path d="M50 22 C50 12 44 9 38 8 L38 22 Z" fill="#e6c86e" opacity="0.9"/>

  <!-- กุญแจ/ตัวล็อค -->
  <rect x="23" y="20" width="10" height="10" rx="2" fill="#e6c86e" stroke="#a9822f" stroke-width="1"/>
  <circle cx="28" cy="24" r="1.8" fill="#5a4318"/>
  <rect x="27.2" y="24" width="1.6" height="3.5" fill="#5a4318"/>
</svg>
